<?xml version="1.0" encoding="UTF-8" standalone="no"?>
<!DOCTYPE svg PUBLIC "-//W3C//DTD SVG 1.1//EN" "http://www.w3.org/Graphics/SVG/1.1/DTD/svg11.dtd">
<svg width="100%" height="100%" viewBox="0 0 1416 279" version="1.1" xmlns="http://www.w3.org/2000/svg" xmlns:xlink="http://www.w3.org/1999/xlink" xml:space="preserve" xmlns:serif="http://www.serif.com/" style="fill-rule:evenodd;clip-rule:evenodd;stroke-linejoin:round;stroke-miterlimit:2;">
    <g transform="matrix(1,0,0,1,98.1324,-241.77)">
        <g transform="matrix(1.27074,0,0,1,-739.881,-6.46465)">
            <path d="M588.769,526.794C652.698,526.794 688.555,499.713 688.555,451.635C688.555,421.292 667.003,394.193 628.853,374.346L592.205,355.453C575.98,346.866 566.818,335.988 566.818,323.965C566.818,306.026 579.798,296.104 602.321,296.104C618.737,296.104 637.059,305.454 654.605,322.248L689.318,282.373C666.049,260.25 635.342,248.235 602.13,248.235C544.884,248.235 512.27,275.316 512.27,322.629C512.27,356.217 534.394,384.842 572.735,403.544L611.674,422.437C625.799,429.116 634.007,439.421 634.007,450.681C634.007,468.81 618.927,478.734 591.823,478.734C568.345,478.734 539.734,472.245 511.888,460.413L505.019,511.918C527.909,521.454 558.044,526.794 588.769,526.794Z" style="fill:rgb(223,219,213);fill-rule:nonzero;"/>
        </g>
        <g transform="matrix(1.27074,0,0,1,-739.881,-6.46465)">
            <path d="M827.096,526.794C895.6,526.794 930.312,481.404 930.312,389.422C930.312,295.151 895.6,248.235 827.096,248.235C758.591,248.235 723.879,295.151 723.879,389.422C723.879,481.404 758.591,526.794 827.096,526.794ZM827.096,478.734C793.505,478.734 776.71,449.154 776.71,389.422C776.71,327.209 793.505,296.295 827.096,296.295C860.687,296.295 877.481,327.209 877.481,389.422C877.481,449.154 860.687,478.734 827.096,478.734Z" style="fill:rgb(223,219,213);fill-rule:nonzero;"/>
        </g>
        <g transform="matrix(1.27074,0,0,1,-739.881,-6.46465)">
            <path d="M1055.31,526.794C1115.41,526.794 1147.07,496.661 1147.07,435.992L1147.07,252.051L1096.72,252.051L1096.72,435.992C1096.72,464.232 1082.98,478.543 1056.07,478.543C1028.01,478.543 1015.41,464.232 1015.41,435.992L1015.41,252.051L965.063,252.051L965.063,435.992C965.063,496.661 995.197,526.794 1055.31,526.794Z" style="fill:rgb(223,219,213);fill-rule:nonzero;"/>
        </g>
        <g transform="matrix(1.27074,0,0,1,-739.881,-6.46465)">
            <path d="M1298.78,522.978L1374.52,522.978L1374.52,252.051L1326.08,252.051L1326.08,463.851L1319.02,463.851L1271.3,252.051L1195.56,252.051L1195.56,522.978L1244.01,522.978L1244.01,311.178L1251.07,311.178L1298.78,522.978Z" style="fill:rgb(223,219,213);fill-rule:nonzero;"/>
        </g>
        <g transform="matrix(1.27074,0,0,1,-739.881,-6.46465)">
            <path d="M1423.01,522.978L1491.87,522.978C1576.8,522.978 1619.14,479.304 1619.14,391.331C1619.14,298.013 1576.8,252.051 1491.87,252.051L1423.01,252.051L1423.01,522.978ZM1473.36,474.918L1473.36,300.111L1491.87,300.111C1541.5,300.111 1566.31,331.408 1566.31,391.331C1566.31,446.101 1541.5,474.918 1491.87,474.918L1473.36,474.918Z" style="fill:rgb(223,219,213);fill-rule:nonzero;"/>
        </g>
    </g>
</svg>
